<svg height="136.45" id="vector" viewBox="0 0 130.75 136.45" width="130.75"
    xmlns="http://www.w3.org/2000/svg">
    <path
        d="M0,26.84A20.67,20.67 0,0 0,8.19 44.23a19.34,19.34 0,0 0,18.06 2.31c7.52,-2.67 12.49,-10.5 11.3,-17.82 -0.18,-1.1 -0.68,-4.73 -3.59,-6.55 -3.09,-1.94 -7.82,-1.17 -11.81,2.07l3.68,2a2.87,2.87 0,0 1,1.24 2.4,3.72 3.72,0 0,1 -1.46,3.23 4.27,4.27 0,0 1,-3.33 0.38A5.6,5.6 0,0 1,18.8 29.6c-1.36,-2.47 -0.9,-6 1.13,-8.65 3,-3.87 9.25,-6.16 13.89,-6.43 12.85,-0.73 19.67,7.77 23.69,14.23l0.27,0.45 -0.45,0.05C44,30.76 31.11,44.38 30.89,57.28c-0.17,9.3 6.92,19.67 16.47,24.1l0.87,0.38A20.84,20.84 0,0 0,70.79 78c5.67,-5 8.61,-11.86 9.79,-19.09l0.33,0.09c11.2,2.85 23,14.69 22.65,31.07 -0.14,7.49 -3.09,13.81 -8.08,17.33a16.25,16.25 0,0 1,-8.61 2.92c0.11,-0.06 0.21,-0.1 0.32,-0.17a12.72,12.72 0,0 0,5.72 -14c-1.08,-4.84 -5.09,-10.25 -13,-10.92a16.08,16.08 0,0 0,-12.63 4.83A20.94,20.94 0,0 0,61 106a31.66,31.66 0,0 0,19.2 27.75,37.07 37.07,0 0,0 16,2.65c11.94,-0.52 19.42,-8.66 22,-11.22 14,-14.13 12.77,-34.2 12.48,-38.83C129.34,66.6 118,53.69 113.71,48.88A69.64,69.64 0,0 0,78.14 28l-1.75,-0.37c-0.12,-0.25 -0.24,-0.51 -0.36,-0.74C68,11.33 58.48,3.77 43.08,0.74c-10.95,-2.16 -24,0.52 -32.48,6.67C3.87,12.3 0.21,19 0,26.84ZM59.53,61.17c-2.66,3.68 -6.69,5.36 -9.79,4.1l-0.05,0c-0.15,-0.07 -0.29,-0.17 -0.44,-0.25l0.42,-1.11c1.41,-3.79 6.61,-7.39 12.49,-8.72A16.9,16.9 0,0 1,59.53 61.17Z"
        fill="#FFFFFF" id="path_0" />
    <path
        d="M42.58,3.3C55.45,5.83 65.3,11.75 73.7,28.05c5.58,10.82 9,36 -4.64,48C53.45,89.74 33.24,71.83 33.5,57.32c0.21,-12 12.49,-24.16 24.13,-25.47 1.55,1.74 2.38,5.74 3,8.11 -7.44,2.2 -16,7.09 -17.09,14.4 -2.26,15.43 11.25,17.77 18.07,8.35 7,-9.61 3.3,-26.95 -1.91,-35.34C56.49,22.16 48.91,11 33.67,11.91c-5.47,0.31 -12.4,3 -15.81,7.44 -2.5,3.24 -3.33,7.93 -1.35,11.51S23.53,36.22 27,34s3.67,-8.23 0.06,-10.15a4.54,4.54 0,0 1,5.3 0.34A7.78,7.78 0,0 1,35 29.14c1,6.34 -3.54,12.79 -9.59,14.93C13.25,48.37 2.3,39.48 2.62,26.91c0.19,-7.61 4,-13.38 9.52,-17.38C20.58,3.41 33,1.42 42.58,3.3ZM62.65,22.3C67.86,27.82 74,46.77 69.6,60.86 77.44,53.89 71.87,26.88 62.65,22.3Z"
        fill="#1D1E1C" id="path_1" />
    <path
        d="M61.44,42.8c-8.21,1.5 -15.34,7.8 -15.44,14A12.6,12.6 0,0 0,47.22 63c1.85,-5 8.19,-9.13 15,-10.49A22.9,22.9 0,0 0,61.44 42.8Z"
        fill="#1D1E1C" id="path_2" />
    <path
        d="M127.47,86c2,26.67 -13.62,47 -31.43,47.8 -21.6,0.92 -31.76,-14.55 -32.48,-27.93 -0.51,-9.53 7.16,-18.76 16.08,-18 12,1 14.32,15.34 6.23,20 -6.38,3.72 -10.88,-0.35 -11.19,-5.65 -0.1,-1.67 -2.63,-1.77 -2.56,0 0.21,5.34 1.26,11.39 8.39,16.12 12.84,8.5 36.08,-2.07 35.17,-30.83C115,66.1 97,44.9 80.46,41.52a63.25,63.25 0,0 0,-2.86 -11C103.81,36 125.53,59.69 127.47,86ZM81.83,104.62c6.33,0.39 7,-12.1 -1.38,-13.36C84.54,94.75 85.07,100 81.83,104.62Z"
        fill="#1D1E1C" id="path_3" />
    <path
        d="M113.65,88.64c0.5,-21.36 -17.48,-41.28 -32.81,-44.84a72.44,72.44 0,0 1,0.71 12.67c12.64,3.21 25,16.27 24.63,33.66 -0.32,17 -13.38,26.38 -27.43,21.64C88.64,124.93 113,117.2 113.65,88.64Z"
        fill="#1D1E1C" id="path_4" />
</svg>