<svg height="142.04" id="vector" viewBox="0 0 135.47 142.04" width="135.47"
    xmlns="http://www.w3.org/2000/svg">
    <path d="M68,8.11a154.6,154.6 0,0 0,-13.6 8.42A131.37,131.37 0,0 0,36.32 31.41c-5.47,5.39 -9.75,12.78 -15.88,17.33a7.43,7.43 0,0 0,-1.5 1.69l-0.14,0.19c-5.86,8 -9.36,15.91 -10.69,24.07A163,163 0,0 1,3.55 93.24c-0.74,2.56 -1.48,5.11 -2.16,7.67 -2.17,8.1 -3.32,21.87 8.54,21.68a11.87,11.87 0,0 0,8.85 -4.28c3.08,1.47 7.24,1.94 10.61,2.61l15.21,3L75,130c5,1 60.2,12.27 60.26,12 0.84,-4.21 -1.45,-10 -2.24,-14.21q-1.49,-7.89 -3,-15.8c-1.92,-10.33 -3.82,-20.67 -5.8,-31C121,64 117,47.47 112.63,30.7c-0.9,-3.49 -1.51,-7.49 -3.08,-10.76l-0.84,-1.75a16.5,16.5 0,0 0,1.57 -1.56,9.41 9.41,0 0,0 2,-9.21A9.73,9.73 0,0 0,105.08 0.86l-0.23,0A45.22,45.22 0,0 0,93.06 0.09C84.45,0.54 75.91,3.84 68,8.11Z"
        fill="#F5BD47"
        id="path_0" />
    <path d="M96.7,91.38c-0.81,-0.58 -1.5,-1.08 -2.38,-1.73 0.16,-1.14 0.34,-2.3 0.53,-3.59 1.93,-0.31 3.36,0.19 4,2 0.53,1.57 -0.3,2.61 -2.12,3.33Z"
        fill="#1D1E1C"
        id="path_1" />
    <path d="M44.86,90.07l-3.28,2.52c-0.32,-1 -0.81,-1.77 -0.64,-2.26 0.34,-1 0.79,-1 3.92,-0.26Z"
        fill="#1D1E1C"
        id="path_2" />
    <path d="M5.83,118.36c-3.11,-5.71 -2.38,-10.9 -0.88,-16.5 2.36,-8.81 5.32,-17.49 6.8,-26.58 1.34,-8.24 5.09,-15.71 10,-22.49a5.66,5.66 0,0 1,0.95 -1.16C28.65,47.24 32.59,41 37.38,35.56A77.05,77.05 0,0 1,56.45 19.84C61,17.19 65.3,14.08 69.89,11.5c7.25,-4.07 14.86,-7.27 23.36,-7.73a42.43,42.43 0,0 1,10.85 0.65,5.94 5.94,0 0,1 3.43,9.76 19.82,19.82 0,0 1,-5.35 4A26.89,26.89 0,0 1,91.75 21.1c-5.34,0.57 -10.33,2.07 -14.47,5.68A11.41,11.41 0,0 0,75 29.29,13.88 13.88,0 0,1 64.38,36a21.83,21.83 0,0 0,-8.61 2.46,10.36 10.36,0 0,0 -4.18,4.22 46.92,46.92 0,0 0,-4.07 10.06c-1.19,4.62 -4.23,8.18 -8,11.1 -1.28,1 -2.6,2 -3.95,2.91a21.09,21.09 0,0 0,-8.41 10.69,28.1 28.1,0 0,1 -6.26,10.18 11.09,11.09 0,0 0,-3.15 9c0.11,1.63 0.27,3.26 0.44,4.88a31,31 0,0 1,-2.08 14c-1,2.66 -3.14,4.14 -6.32,4.71l-4,-1.82Z"
        fill="#1D1E1C"
        id="path_3" />
    <path d="M21,97.11c-0.06,-2 0.11,-4 0.17,-5.75a11.6,11.6 0,0 1,1.56 -1.61c4.23,-2.59 6.08,-6.9 7.75,-11.22a18.68,18.68 0,0 1,9.21 -10.41c4.87,-2.56 8.14,-7 10.49,-11.91 1.36,-2.81 2.37,-5.82 3.77,-8.61 2.53,-5 6.29,-8.31 12.1,-9.06a16.57,16.57 0,0 0,4.24 -1.13l5,2.85c-3.34,0.89 -4.58,3.88 -3.44,7.34a18,18 0,0 1,0.44 2.26c-3.4,0.37 -6.13,-2.67 -9.38,-0.22 -3.42,4.74 -3.4,8.24 0.29,13.25a10.09,10.09 0,0 1,1.23 2.29,10 10,0 0,0 6.19,6.13c2.1,0.73 3.65,2.26 5.24,3.71 -0.1,0.23 -0.2,0.47 -0.3,0.73 -1.3,-0.13 -2.58,-0.24 -3.88,-0.35 -0.62,0.53 -1.23,1.09 -1.88,1.69 -2.92,-1.65 -5.23,-4.4 -8.93,-3.71 -0.85,0.77 -1.67,1.51 -2.74,2.5a13.47,13.47 0,0 1,-3.05 -2c-2,-2.33 -4.57,-2.9 -7.74,-2.66 -1,1.21 -2.53,2.39 -3.12,3.93 -0.73,2 -2.82,2 -3.74,3.38 -0.27,0.42 -0.37,1 -0.63,1.37a17.88,17.88 0,0 1,-1.29 1.84,13.54 13.54,0 0,0 -2.56,13.3c-0.6,2.3 -1.11,4.34 -1.63,6.43 2.89,1.81 2.94,4.71 3.56,7.06 2.23,1.84 4.27,0.82 6.15,0.1l4.24,2.76L48,114.65a4.17,4.17 0,0 1,-1.37 -0.26c-2.82,-1 -5,0.2 -6.66,2.19 -1.93,2.27 -4,2.56 -6.7,1.58s-5.55,-1.56 -8.32,-2.33c-1.19,-0.32 -2.37,-0.64 -3.4,-0.9 -0.2,-0.49 -0.41,-0.75 -0.37,-0.93 1.24,-5.65 0,-11.27 -0.17,-16.89Z"
        fill="#1D1E1C"
        id="path_4" />
    <path d="M48,89.47c-0.53,2.7 -0.53,2.7 1.47,2.66 0.5,-1.26 0.06,-2.08 -1.47,-2.66ZM44.7,84.37c-0.18,0.81 -0.38,1.73 -0.57,2.58 1.59,1.51 3.07,2.13 5.08,0.58 -0.35,-3.4 -0.75,-3.68 -4.51,-3.16ZM38.09,91.51A19.22,19.22 0,0 1,41 82.3a4.38,4.38 0,0 1,4.12 -2.21c1.17,0.7 2.39,1.34 3.51,2.13a13.61,13.61 0,0 1,2.84 2.43c1.88,2.4 2.86,5.11 1.7,8.1 -1.06,2.69 -3.7,3.43 -6.16,3.73a14.82,14.82 0,0 1,-5.92 -0.71,4 4,0 0,1 -3,-4.26Z"
        fill="#1D1E1C"
        id="path_5" />
    <path d="M36.73,99.24c1.1,-0.92 1.84,-1.55 2.62,-2.18 2.93,1.16 5.75,2.15 8.87,1.46s6,-1.85 7,-5C56.27,89.9 56.93,86 53.62,83c-2.26,-2.09 -4.08,-4.73 -7.58,-5.86 0.57,-1.16 1,-2.08 1.4,-2.78 5.28,-0.91 6.89,3.91 10.44,5.9a26.21,26.21 0,0 0,2.42 -1.63c0.76,-0.62 1.4,-1.38 2.18,-2.16a8.39,8.39 0,0 1,5 4.36l-3.78,4c-0.27,3.54 -0.19,7 2.27,9.94a11.45,11.45 0,0 1,1.28 3.1l-3,3.15c0,1.09 -0.07,2.19 -0.12,3.34 -2.93,2 -4.93,-0.88 -7.36,-1.27 -2.61,0 -4.58,0.81 -5.15,3.78 -0.12,0.71 -1,1.3 -1.75,2.23 -1.17,-1.14 -2.12,-2 -3.16,-3.08l-6.85,0.74c0.91,-3.47 -1.36,-5.19 -3.13,-7.5Z"
        fill="#1D1E1C"
        id="path_6" />
    <path d="M41.63,120.18c0,-2.24 1.69,-2.6 2.72,-3.63C47.69,118 51,117 54.49,117c1.39,1.24 2.85,2.52 4.5,4l4.67,-3.7c3.56,1.53 4.91,3.74 4.75,7.63Q55,122.53 41.63,120.18Z"
        fill="#1D1E1C"
        id="path_7" />
    <path d="M48,114.65l0.29,-3.24c4.08,-0.12 5.79,-2.67 7.27,-6a33.38,33.38 0,0 0,4.92 2.11,27.26 27.26,0 0,0 4.94,0.4c2.13,3.12 4.43,5.53 7.81,6.71a5.66,5.66 0,0 1,2.1 1.52c3,3.34 4.76,3.87 8.82,2.44 1.66,-0.57 3.27,-1.27 5.25,-2.07 1.86,1.3 3.77,2.66 5.67,4 3.59,2.6 7.33,3.89 11.74,1.15 0.72,-1.5 1.9,-3.1 2.25,-4.87 0.4,-2 0.08,-4.19 0.06,-6.75 1.25,-0.82 2.69,-1.78 4.16,-2.69a5.17,5.17 0,0 0,2.13 -2.19l2.32,0.57c-0.34,1 0,2.16 1,3.91 0.23,0.43 0.45,0.89 0.73,1.43 -0.82,2.28 -2.74,4 -2.71,6.82 0,3.12 2.22,4.24 4.44,5.63 -0.78,1.31 -1.48,2.48 -2.18,3.63 0.81,5.27 3.74,6.71 11.21,5.25 0.33,1.64 0.66,3.3 1,5.13a5.74,5.74 0,0 1,-1.73 0.22c-6,-1.47 -11.91,-3 -17.89,-4.45 -1.7,-0.4 -3.48,-0.56 -5.2,-0.92 -6.37,-1.39 -12.74,-2.86 -19.11,-4.2 -3.21,-0.66 -6.44,-1.12 -9.67,-1.65 -1.62,-0.26 -3.22,-0.47 -4.61,-0.68a63.39,63.39 0,0 0,-2.35 -7.27c-2.13,-4.71 -5.72,-5.84 -10.51,-3.64 -0.67,0.32 -1.4,0.55 -2.22,0.87a14.59,14.59 0,0 0,-9 -1.28,3.74 3.74,0 0,1 -0.89,0.07Z"
        fill="#1D1E1C"
        id="path_8" />
    <path d="M62.44,56.13c2,-5.05 3.61,-5.7 7,-3.08 -0.34,1.29 -0.74,2.57 -1,3.89 -0.84,4.54 1.71,8.64 6.67,10.44C79.57,69 84,67.21 86.31,62.94c2,-3.68 3.07,-7.43 0.55,-11.34C81.19,48 81.19,48 75.42,48.47c-0.54,-0.83 -1.17,-1.8 -1.73,-2.7 3,-3.85 7.92,-4.47 12.18,-1.69 1.14,0.74 2.07,1.8 3.16,2.63a25.14,25.14 0,0 0,2.38 1.44c0.91,-0.91 1.66,-1.72 2.48,-2.46a4.91,4.91 0,0 1,5.62 -0.38c1.53,1 2,2.48 1.18,4.64a15.13,15.13 0,0 0,-1.4 6.69c1.89,1 3.83,2 3.5,4.64 -2.36,2.27 -2.36,2.27 -3.66,7.31 1.47,1.13 3,2.33 4.48,3.49 -1.35,3.61 -2.72,4.57 -5.92,4.81a16.44,16.44 0,0 1,-6.28 -0.37c-1.08,-0.35 -2.42,0.21 -4,0.37 -2.95,-3.11 -5.17,-7.46 -10.6,-5.29l-9.48,-5.07c-0.19,-1.68 -0.37,-3.4 -0.57,-5.19l-4.37,-5.21Z"
        fill="#1D1E1C"
        id="path_9" />
    <path d="M75.22,40.26l-5,-2.85A14.66,14.66 0,0 0,76 33.08c5.1,-6.27 11.78,-8.57 19.61,-8.49a22.17,22.17 0,0 0,6.17 -1.34,45.36 45.36,0 0,0 4.42,-1.71c1.4,2.93 9.59,37.39 9.63,39.67 -1.2,1.84 -2.65,3.17 -2.85,4.69s0.74,3.31 1.24,5.18c0,2.12 0,4.48 0,7.08 1.85,1.36 3.66,2.67 5.8,4.23 1.18,6 2.46,12.31 3.77,18.82 -1.23,0.66 -2.46,1.23 -3.58,2 -1.45,1 -2.28,1.71 -2.56,2.61l-2.32,-0.57a4.11,4.11 0,0 0,-0.05 -3.19,10.16 10.16,0 0,0 -2.43,-3.67 53.12,53.12 0,0 0,-5 -3.81c1.17,-2.84 1.74,-5.41 0.53,-8.38s-4.08,-4.22 -6.12,-6.53a9.32,9.32 0,0 0,4 -6.33c0.31,-2.93 -2.32,-4.51 -3.71,-6.6 1.22,-1.81 2.3,-3.47 2.87,-4.35 0.9,-4.51 -2.6,-6.3 -3.47,-9.2 0.6,-1.37 1.17,-2.63 1.67,-3.76 -0.12,-4.4 -2.35,-6.86 -6.46,-7.81 -1.06,0.41 -2.09,0.84 -3.15,1.23 -2.14,0.75 -4.23,0.73 -6,-0.81 -3.91,-3.39 -8.38,-2.92 -12.82,-1.74Z"
        fill="#1D1E1C"
        id="path_10" />
    <path d="M77.93,54.7a2.89,2.89 0,0 0,0.19 2.38c0.8,1.24 2,1.74 3.83,0.56 -0.19,-1.13 -0.38,-2.39 -0.55,-3.49 -1.6,-0.8 -2.83,-0.79 -3.47,0.55ZM70.41,59.11c0.25,-4.63 2.41,-7.49 7.11,-8.11a10,10 0,0 1,4 0.6,4.15 4.15,0 0,1 3.18,4.09c0,1.6 0.13,3.2 0.19,4.63C83,62.58 81.27,63.9 79,64.44a7.35,7.35 0,0 1,-2.19 0.22c-3.88,-0.34 -6.54,-2.58 -6.39,-5.55Z"
        fill="#1D1E1C"
        id="path_11" />
    <path d="M67.36,90.23c-0.55,-1.52 -0.81,-3 0.42,-4.23 2.29,-2.21 3.47,-5 4.51,-8l5.21,1.4c0.88,-1.71 1.71,-3.32 2.57,-5 2.26,-0.32 3,1.21 3.71,3 -3.58,2.65 -6.88,5.48 -9,9.37a43.68,43.68 0,0 0,-2.64 5c-1.43,3.56 -0.47,7 1.31,10.07 2.44,4.26 6.6,6.42 11,8.1A22.77,22.77 0,0 0,94 111.51,6.78 6.78,0 0,0 98.06,110a21.58,21.58 0,0 0,8 -11.28c4.91,0.88 6,2 5.78,5.67a12.28,12.28 0,0 1,-2.25 1.07c-2.9,0.8 -4,2.9 -4,5.66 0,2.11 0.23,4.24 0.37,6.27 -1.76,3.84 -5.26,3.28 -8.44,1.72a8.61,8.61 0,0 1,-2.33 -1.88c-2.7,-2.87 -6,-3.29 -9.65,-2.67a55.31,55.31 0,0 1,-5.77 0.36c-1,-1.11 -1.78,-1.92 -2.58,-2.77 -3.36,-0.73 -6.49,-1.92 -8.86,-4.39 -1,-4.5 -1,-4.5 1.69,-9.73 -0.81,-2.42 -1.68,-5.14 -2.64,-7.84Z"
        fill="#1D1E1C"
        id="path_12" />
    <path d="M92.06,100.11c-0.06,1.59 0.2,3.07 1.94,3.58a3.64,3.64 0,0 0,4.38 -1.84c-1.15,-3.52 -3.27,-4.09 -6.32,-1.74ZM88.24,90c-1.26,0.15 -2,0.86 -2.11,2.66 0.76,0.66 1.74,1.52 3,2.58L91.45,93c-1.36,-2.54 -2,-3.16 -3.21,-3ZM86.8,82.89c-0.4,2.13 0.34,3.23 1.94,3.4a3.63,3.63 0,0 0,2.67 -0.79c1,-1 0.7,-2.33 -0.85,-3.46l-3.76,0.85ZM83.49,95.56c-2.62,0.86 -2.62,0.86 -2.67,3.64 0.9,0.68 1.86,1.38 2.77,2 3.36,-1.78 3.33,-3.14 -0.1,-5.68ZM76.17,100.47c-2.64,-3 -2.4,-6.63 -0.58,-9.87 2.33,-4.16 5.11,-8.1 9.71,-10.13 2.64,-1.16 5.39,-2 8.27,-1.22a20.75,20.75 0,0 1,9.55 4.3c2.44,1.81 4.15,5.2 2.41,8.62 -1.3,2.53 -1.9,5.41 -3,8a21.31,21.31 0,0 1,-2.83 4.83,8.18 8.18,0 0,1 -6.79,3.31 21.37,21.37 0,0 1,-16.72 -7.89Z"
        fill="#1D1E1C"
        id="path_13" />
    <path d="M116.66,71.75c-0.06,-2.41 -2.35,-3.52 -1.3,-5.48 0.15,-0.31 0.8,-0.34 1.58,-0.65 0.9,4.32 1.73,8.36 2.57,12.4 -0.33,0.11 -0.66,0.23 -1,0.37 -3.25,-1.67 -2.12,-4.64 -1.86,-6.64Z"
        fill="#1D1E1C"
        id="path_14" />
    <path d="M121.13,120.67c-2,-1.84 -2.12,-3.35 -0.27,-5.48 0.63,-0.77 1.36,-1.43 2.18,-2.31 -0.66,-1.86 -1.31,-3.7 -2.05,-5.75 1,-0.71 1.88,-1.31 3.19,-2.23 2.71,8.23 3.58,16.37 5.16,24.31 -3,1.47 -4.6,1.07 -7.26,-1.83l1.66,-4.69c-1,-0.81 -1.87,-1.37 -2.61,-2Z"
        fill="#1D1E1C"
        id="path_15" />
</svg>